#!OML:ASF I:\Actors\actors\Patient Classification 1\Patient 1\Session 1\Subject1.ASF
:FULLY-SPECIFIED
:DEGREES
1214
root 0.582578 17.5437 9.67644 13.1989 -11.3091 -10.6292
lowerback 1.73872 1.87195 10.0574
upperback -8.98643 3.27327 0.473688
thorax -10.15 0.774997 -5.42876
lowerneck -11.6139 9.00411 13.7205
upperneck 14.8224 13.1437 -17.9082
head 8.69463 5.59674 -6.75367
rclavicle 1.26228e-014 2.38542e-015
rhumerus 85.0377 40.1114 -26.3836
rradius 96.1518
rwrist -27.2069
rhand 2.63779 -54.3031
rfingers 7.12502
rthumb 28.1144 277.784
lclavicle 1.26228e-014 2.38542e-015
lhumerus 5.59781 16.1295 81.91
lradius 105.528
lwrist 101.793
lhand -28.1954 -3.26809
lfingers 7.12502
lthumb -1.57467 26.7058
rfemur -6.61158 23.6494 24.6657
rtibia 2.08309
rfoot -12.263 -16.785
rtoes -1.66526
lfemur 8.73151 -45.1046 -13.0081
ltibia -4.55433
lfoot -43.9258 57.16
ltoes 22.8265
1215
root 0.583681 17.5419 9.67557 13.2023 -11.3062 -10.7188
lowerback 1.71747 1.81332 10.0462
upperback -8.93351 3.19109 0.524076
thorax -10.0935 0.743258 -5.35868
lowerneck -11.5907 9.01443 13.7809
upperneck 14.7789 13.1484 -17.9395
head 8.68362 5.60206 -6.77412
rclavicle 6.85807e-015 7.15625e-015
rhumerus 84.9866 40.3661 -25.6295
rradius 96.6796
rwrist -26.8335
rhand 2.60531 -54.2873
rfingers 7.12502
rthumb 28.0833 277.795
lclavicle 6.85807e-015 7.15625e-015
lhumerus 5.67922 16.3505 81.875
lradius 105.575
lwrist 101.904
lhand -28.1534 -3.30717
lfingers 7.12502
lthumb -1.53405 26.6671
rfemur -6.61868 23.5969 24.765
rtibia 2.11173
rfoot -12.2131 -16.6979
rtoes -1.69928
lfemur 8.83666 -45.2355 -12.99
ltibia -4.58231
lfoot -44.256 57.1907
ltoes 22.9357
1216
root 0.584314 17.5401 9.67503 13.2381 -11.3513 -10.7364
lowerback 1.62956 1.75216 9.95014
upperback -8.8872 3.09161 0.577675
thorax -10.0088 0.711538 -5.23363
lowerneck -11.4947 9.04396 13.7359
upperneck 14.6374 13.1862 -17.9366
head 8.62222 5.62573 -6.75886
rclavicle -2.38542e-015 1.59028e-015
rhumerus 84.9748 40.5469 -24.6576
rradius 97.2124
rwrist -26.5077
rhand 2.63723 -54.1734
rfingers 7.12502
rthumb 28.1139 277.914
lclavicle -2.38542e-015 1.59028e-015
lhumerus 5.7304 16.6156 81.8058
lradius 105.486
lwrist 101.753
lhand -28.5069 -3.33065
lfingers 7.12502
lthumb -1.87545 26.6409
rfemur -6.67373 23.5468 24.757
rtibia 2.12203
rfoot -12.1619 -16.6163
rtoes -1.80307
lfemur 8.86759 -45.3673 -13.0201
ltibia -4.5726
lfoot -44.5677 57.2366
ltoes 23.0628
1217
root 0.584636 17.5383 9.67407 13.3115 -11.3837 -10.7443
lowerback 1.54087 1.71144 9.85666
upperback -8.88611 3.02202 0.618848
thorax -9.96937 0.689436 -5.12718
lowerneck -11.3433 9.07101 13.6821
upperneck 14.484 13.2353 -17.9758
head 8.55164 5.65434 -6.75717
rclavicle -3.77691e-015 -3.89618e-014
rhumerus 84.6776 40.7259 -23.73
rradius 97.6425
rwrist -25.9794
rhand 2.76911 -53.9214
rfingers 7.12502
rthumb 28.2399 278.187
lclavicle -3.77691e-015 -3.89618e-014
lhumerus 5.68655 16.8628 81.7192
lradius 105.45
lwrist 101.719
lhand -28.6233 -3.27498
lfingers 7.12502
lthumb -1.98787 26.6955
rfemur -6.78024 23.5301 24.7289
rtibia 2.15802
rfoot -12.141 -16.5973
rtoes -2.18973
lfemur 8.77105 -45.4103 -12.9471
ltibia -4.55745
lfoot -44.7463 57.2149
ltoes 23.2233
1218
root 0.585764 17.538 9.67293 13.3612 -11.3991 -10.7123
lowerback 1.50454 1.67798 9.74958
upperback -8.91047 2.96727 0.629427
thorax -9.98655 0.670199 -5.05047
lowerneck -11.1891 9.10891 13.6734
upperneck 14.4001 13.3011 -18.0067
head 8.50903 5.69257 -6.75946
rclavicle 1.37161e-014 -1.03368e-014
rhumerus 84.1373 40.9415 -22.8549
rradius 98.0741
rwrist -25.1026
rhand 2.74929 -53.5808
rfingers 7.12502
rthumb 28.221 278.524
lclavicle 1.37161e-014 -1.03368e-014
lhumerus 5.56068 17.0837 81.5468
lradius 105.491
lwrist 101.823
lhand -28.5236 -3.25407
lfingers 7.12502
lthumb -1.89163 26.7173
rfemur -6.86206 23.5583 24.6616
rtibia 2.18839
rfoot -12.1736 -16.62
rtoes -2.42204
lfemur 8.68025 -45.4121 -12.9133
ltibia -4.56562
lfoot -44.7719 57.2139
ltoes 23.2527
1219
root 0.587767 17.538 9.67206 13.3757 -11.4304 -10.6893
lowerback 1.51483 1.59176 9.65399
upperback -8.90319 2.85013 0.694687
thorax -10.008 0.622905 -4.91703
lowerneck -11.1872 9.21881 13.559
upperneck 14.4414 13.4711 -17.9372
head 8.53842 5.76987 -6.68937
rclavicle -5.46658e-015 1.43125e-014
rhumerus 83.8222 41.1274 -21.75
rradius 98.5163
rwrist -24.2283
rhand 2.44214 -53.2521
rfingers 7.12502
rthumb 27.9274 278.805
lclavicle -5.46658e-015 1.43125e-014
lhumerus 5.40309 17.4931 81.3009
lradius 105.584
lwrist 101.931
lhand -28.54 -3.16603
lfingers 7.12502
lthumb -1.90745 26.8052
rfemur -6.89372 23.6019 24.6168
rtibia 2.19435
rfoot -12.1801 -16.6418
rtoes -2.49115
lfemur 8.72759 -45.5211 -12.9864
ltibia -4.60508
lfoot -45.1084 57.2572
ltoes 23.5043
1220
root 0.590677 17.5372 9.67129 13.394 -11.4528 -10.7264
lowerback 1.53712 1.46793 9.62354
upperback -8.88956 2.69277 0.823079
thorax -10.0373 0.55345 -4.74819
lowerneck -11.1249 9.35748 13.4496
upperneck 14.3964 13.7015 -18.0009
head 8.55034 5.8709 -6.65837
rclavicle 9.69075e-015 7.95139e-015
rhumerus 83.6212 41.2973 -20.5535
rradius 98.9198
rwrist -23.5145
rhand 1.98788 -52.8312
rfingers 7.12502
rthumb 27.493 279.156
lclavicle 9.69075e-015 7.95139e-015
lhumerus 5.16704 18.0149 81.0305
lradius 105.664
lwrist 102.085
lhand -28.4153 -3.18674
lfingers 7.12502
lthumb -1.78706 26.7855
rfemur -6.9158 23.6545 24.6422
rtibia 2.19956
rfoot -12.1798 -16.6714
rtoes -2.32191
lfemur 8.82361 -45.6974 -13.0268
ltibia -4.66468
lfoot -45.647 57.2935
ltoes 23.9445
1221
root 0.594021 17.5365 9.67117 13.4207 -11.4699 -10.7465
lowerback 1.54941 1.48782 9.6407
upperback -8.91235 2.71949 0.770713
thorax -10.0639 0.560333 -4.81753
lowerneck -11.1395 9.36248 13.577
upperneck 14.4584 13.7025 -18.0439
head 8.58677 5.87276 -6.69601
rclavicle -2.77305e-014 5.725e-014
rhumerus 82.6544 41.3665 -19.9157
rradius 99.2116
rwrist -22.678
rhand 1.37303 -52.2607
rfingers 7.12502
rthumb 26.9048 279.634
lclavicle -2.77305e-014 5.725e-014
lhumerus 5.01755 17.9838 80.8079
lradius 105.568
lwrist 102.197
lhand -28.4646 -3.65561
lfingers 7.12502
lthumb -1.83467 26.3163
rfemur -6.94618 23.7067 24.6415
rtibia 2.20988
rfoot -12.2288 -16.7011
rtoes -2.03131
lfemur 8.86374 -45.788 -13.0393
ltibia -4.72012
lfoot -45.7904 57.3721
ltoes 24.0586
1222
root 0.596423 17.5358 9.67206 13.4543 -11.4963 -10.7218
lowerback 1.52974 1.61768 9.65797
upperback -8.93794 2.87881 0.566085
thorax -10.0458 0.626948 -5.06216
lowerneck -11.4825 9.29709 13.6462
upperneck 14.8548 13.5466 -17.6878
head 8.72848 5.80304 -6.60196
rclavicle -3.99557e-014 -3.81667e-014
rhumerus 81.1342 41.2874 -19.7466
rradius 99.336
rwrist -21.3314
rhand 0.759735 -51.671
rfingers 7.12502
rthumb 26.3179 280.135
lclavicle -3.99557e-014 -3.81667e-014
lhumerus 5.01748 17.6117 80.7019
lradius 105.458
lwrist 102.19
lhand -28.7015 -3.99294
lfingers 7.12502
lthumb -2.0634 25.9768
rfemur -7.00214 23.7126 24.5886
rtibia 2.24615
rfoot -12.2486 -16.7014
rtoes -2.24491
lfemur 8.82805 -45.7562 -13.0439
ltibia -4.75275
lfoot -45.6042 57.4538
ltoes 23.8452
1223
root 0.598792 17.5351 9.67287 13.4977 -11.5231 -10.6777
lowerback 1.48965 1.6653 9.64543
upperback -8.95959 2.92874 0.443906
thorax -10.0324 0.64638 -5.19052
lowerneck -11.6713 9.31484 13.6194
upperneck 15.1346 13.5351 -17.3854
head 8.82685 5.80331 -6.49039
rclavicle -3.81667e-014 1.27222e-014
rhumerus 79.9013 41.2125 -19.4676
rradius 99.4159
rwrist -19.5306
rhand 0.412501 -51.0528
rfingers 7.12502
rthumb 25.9854 280.704
lclavicle -3.81667e-014 1.27222e-014
lhumerus 4.91587 17.6504 80.5719
lradius 105.554
lwrist 101.795
lhand -28.7698 -2.80223
lfingers 7.12502
lthumb -2.12936 27.1669
rfemur -7.08295 23.6509 24.5085
rtibia 2.28672
rfoot -12.1979 -16.6532
rtoes -2.75485
lfemur 8.75678 -45.7225 -13.0549
ltibia -4.75029
lfoot -45.5499 57.4523
ltoes 23.7597
1224
root 0.601944 17.5347 9.67366 13.5254 -11.5455 -10.6115
lowerback 1.43422 1.64613 9.59693
upperback -8.95363 2.88914 0.405231
thorax -9.99755 0.631147 -5.19956
lowerneck -11.6533 9.38956 13.7118
upperneck 15.1549 13.6501 -17.4828
head 8.86563 5.85483 -6.52347
rclavicle -2.75317e-014 5.48646e-014
rhumerus 78.946 41.1268 -19.0199
rradius 99.553
rwrist -18.0912
rhand 0.190402 -50.5168
rfingers 7.12502
rthumb 25.7727 281.209
lclavicle -2.75317e-014 5.48646e-014
lhumerus 4.73861 17.9795 80.3779
lradius 105.708
lwrist 101.393
lhand -28.8104 -1.35357
lfingers 7.12502
lthumb -2.16863 28.6152
rfemur -7.13632 23.622 24.404
rtibia 2.29845
rfoot -12.1327 -16.6422
rtoes -3.07649
lfemur 8.70739 -45.6985 -13.1147
ltibia -4.73896
lfoot -45.5723 57.4036
ltoes 23.8492
1225
root 0.604236 17.534 9.67554 13.5182 -11.5606 -10.5684
lowerback 1.35813 1.62306 9.54979
upperback -8.8879 2.84158 0.406251
thorax -9.88516 0.620078 -5.16371
lowerneck -11.6671 9.45909 13.8604
upperneck 15.0941 13.7708 -17.7672
head 8.90525 5.89761 -6.62972
rclavicle -2.10712e-014 -3.57812e-014
rhumerus 78.0671 40.9851 -18.5681
rradius 99.7029
rwrist -17.5107
rhand 0.0439316 -50.0795
rfingers 7.12502
rthumb 25.6325 281.626
lclavicle -2.10712e-014 -3.57812e-014
lhumerus 4.6153 18.2352 80.2562
lradius 105.744
lwrist 101.438
lhand -28.8018 -1.86394
lfingers 7.12502
lthumb -2.16033 28.1049
rfemur -7.11684 23.7171 24.3459
rtibia 2.28049
rfoot -12.1429 -16.7362
rtoes -3.15674
lfemur 8.74625 -45.6927 -13.1991
ltibia -4.76742
lfoot -45.5671 57.4149
ltoes 23.8627
1226
root 0.605645 17.5327 9.67727 13.5015 -11.5569 -10.5731
lowerback 1.31278 1.49131 9.51311
upperback -8.82693 2.662 0.534727
thorax -9.82385 0.54649 -4.98643
lowerneck -11.5442 9.58999 13.9697
upperneck 14.9652 14.0179 -18.1738
head 8.9284 5.99637 -6.75614
rclavicle 1.17283e-014 -5.56597e-015
rhumerus 77.6382 40.9781 -17.9214
rradius 99.8848
rwrist -17.3256
rhand -0.213972 -49.6314
rfingers 7.12502
rthumb 25.3854 282.039
lclavicle 1.17283e-014 -5.56597e-015
lhumerus 4.36443 18.7483 80.0931
lradius 105.78
lwrist 101.539
lhand -28.6322 -2.95773
lfingers 7.12502
lthumb -1.99646 27.0127
rfemur -7.07292 23.8237 24.3552
rtibia 2.25573
rfoot -12.2118 -16.8346
rtoes -3.02781
lfemur 8.82529 -45.7377 -13.2512
ltibia -4.80589
lfoot -45.6229 57.4668
ltoes 23.8301
1227
root 0.607108 17.5319 9.67832 13.476 -11.5391 -10.5773
lowerback 1.3382 1.24596 9.45623
upperback -8.81075 2.34648 0.76038
thorax -9.88048 0.404812 -4.6847
lowerneck -11.3603 9.80256 13.9076
upperneck 14.881 14.4095 -18.4904
head 8.96185 6.16188 -6.80028
rclavicle -1.38155e-014 -1.98785e-014
rhumerus 77.7021 41.0975 -16.9932
rradius 100.058
rwrist -16.8076
rhand -0.837995 -48.9573
rfingers 7.12502
rthumb 24.7875 282.629
lclavicle -1.38155e-014 -1.98785e-014
lhumerus 3.93912 19.5725 79.796
lradius 105.845
lwrist 101.547
lhand -28.6151 -3.28366
lfingers 7.12502
lthumb -1.98001 26.6869
rfemur -7.02329 23.9347 24.3738
rtibia 2.24161
rfoot -12.2427 -16.9595
rtoes -2.92835
lfemur 8.89765 -45.8017 -13.3046
ltibia -4.8188
lfoot -45.7106 57.5
ltoes 23.819
1228
root 0.609066 17.5316 9.68044 13.4365 -11.5202 -10.5248
lowerback 1.38358 1.09942 9.39745
upperback -8.81703 2.15785 0.855151
thorax -9.94783 0.318117 -4.53453
lowerneck -11.3 9.92346 13.8529
upperneck 14.8941 14.6347 -18.6407
head 9.00632 6.25423 -6.81065
rclavicle -3.1408e-014 2.62396e-014
rhumerus 77.3946 41.1349 -16.2768
rradius 100.081
rwrist -15.3429
rhand -1.56131 -48.2399
rfingers 7.12502
rthumb 24.0941 283.253
lclavicle -3.1408e-014 2.62396e-014
lhumerus 3.6012 20.0336 79.5244
lradius 105.907
lwrist 101.668
lhand -28.8048 -3.1103
lfingers 7.12502
lthumb -2.16316 26.8585
rfemur -6.95931 24.0456 24.3298
rtibia 2.21921
rfoot -12.2526 -17.101
rtoes -3.06508
lfemur 8.9402 -45.7871 -13.3954
ltibia -4.82801
lfoot -45.599 57.4925
ltoes 23.7367
